<?xml version="1.0" standalone="no"?>
<!DOCTYPE svg PUBLIC "-//W3C//DTD SVG 20010904//EN"
 "http://www.w3.org/TR/2001/REC-SVG-20010904/DTD/svg10.dtd">
<svg version="1.0" xmlns="http://www.w3.org/2000/svg"
 width="512.000000pt" height="512.000000pt" viewBox="0 0 512.000000 512.000000"
 preserveAspectRatio="xMidYMid meet">
<metadata>
Created by potrace 1.14, written by Peter Selinger 2001-2017
</metadata>
<g transform="translate(0.000000,512.000000) scale(0.100000,-0.100000)"
fill="#000000" stroke="none">
<path d="M3718 4863 c-429 -390 -792 -941 -1045 -1588 -94 -240 -188 -530
-248 -765 -29 -113 -112 -493 -120 -550 -1 -14 -6 -41 -9 -60 -22 -131 -45
-275 -51 -320 -3 -25 -8 -63 -10 -85 -3 -22 -8 -57 -10 -77 -3 -21 -7 -55 -10
-75 -3 -21 -7 -63 -10 -93 -2 -30 -9 -107 -15 -170 -15 -178 -19 -234 -21
-305 -2 -67 -18 -103 -20 -43 0 18 -2 40 -4 49 -1 8 -6 40 -9 70 -7 54 -10 82
-21 174 -4 28 -13 88 -21 135 -9 47 -19 108 -24 135 -13 73 -58 285 -70 325
-5 19 -26 94 -46 165 -172 630 -455 1158 -820 1530 -138 141 -298 271 -434
354 -30 19 -66 41 -80 50 -13 9 -22 12 -18 6 32 -55 209 -507 274 -703 19 -56
39 -112 44 -125 10 -25 88 -284 95 -313 2 -11 13 -50 25 -89 49 -165 135 -532
180 -767 28 -147 29 -152 45 -263 9 -55 17 -111 20 -125 16 -110 25 -174 30
-225 3 -33 8 -73 10 -90 12 -79 29 -339 19 -300 -2 11 -11 52 -20 90 -9 39
-25 102 -36 140 -11 39 -21 75 -23 80 -1 6 -8 24 -14 40 -7 17 -23 58 -36 92
-154 405 -476 754 -880 953 -133 65 -313 136 -322 126 -3 -2 14 -29 36 -59 23
-29 41 -56 41 -59 0 -3 17 -35 39 -70 82 -135 172 -334 237 -523 33 -96 88
-283 98 -335 3 -14 17 -79 30 -145 14 -66 28 -133 30 -150 11 -71 28 -203 31
-240 16 -177 23 -295 24 -422 l1 -63 1980 0 1980 0 1 53 c6 596 125 1161 340
1616 72 152 194 362 224 383 5 4 7 10 4 13 -21 20 -388 -145 -527 -238 -308
-206 -556 -516 -681 -852 -13 -33 -26 -67 -30 -75 -17 -32 -75 -249 -88 -325
-3 -16 -7 -32 -10 -35 -5 -5 4 156 12 200 2 14 7 56 10 93 4 37 8 76 10 85 1
9 6 48 10 87 4 38 8 72 10 75 2 3 6 34 10 70 4 36 8 67 10 70 2 3 6 28 9 55 9
63 16 112 22 139 3 11 14 71 25 131 45 245 127 584 216 890 52 181 144 468
163 510 5 11 34 90 66 175 56 152 144 368 164 402 18 31 11 29 -72 -23 -546
-340 -949 -902 -1209 -1684 -19 -57 -77 -254 -84 -285 -1 -8 -9 -35 -16 -60
-7 -25 -13 -49 -14 -55 -2 -5 -16 -73 -33 -150 -17 -77 -33 -160 -37 -185 -3
-25 -8 -52 -10 -60 -2 -8 -6 -33 -10 -55 -3 -22 -10 -67 -15 -100 -5 -33 -11
-74 -12 -92 -1 -17 -6 -29 -10 -27 -5 3 -6 8 -4 12 2 4 7 66 10 137 4 72 9
146 11 165 2 19 6 71 10 115 3 44 8 96 10 115 2 19 6 67 10 105 3 39 8 87 10
108 3 20 7 56 10 80 3 23 7 58 10 77 2 19 7 60 10 90 4 30 8 66 10 80 2 14 7
50 10 80 4 30 9 64 11 75 2 11 7 40 10 65 3 25 7 52 9 60 3 15 13 80 20 130
15 96 28 173 50 290 14 74 28 149 30 165 44 270 240 1061 345 1390 88 278 105
330 150 455 27 74 56 152 64 173 9 20 14 37 12 37 -2 0 -37 -30 -78 -67z
m-731 -3985 c-3 -7 -5 -2 -5 12 0 14 2 19 5 13 2 -7 2 -19 0 -25z m-817 -192
c0 -3 -4 -8 -10 -11 -5 -3 -10 -1 -10 4 0 6 5 11 10 11 6 0 10 -2 10 -4z"/>
</g>
</svg>
